<?xml version="1.0" encoding="iso-8859-1"?>
<!-- Uploaded to: SVG Repo, www.svgrepo.com, Generator: SVG Repo Mixer Tools -->
<!DOCTYPE svg PUBLIC "-//W3C//DTD SVG 1.1//EN" "http://www.w3.org/Graphics/SVG/1.1/DTD/svg11.dtd">
<svg fill="#000000" height="800px" width="800px" version="1.1" id="Capa_1" xmlns="http://www.w3.org/2000/svg" xmlns:xlink="http://www.w3.org/1999/xlink" 
	 viewBox="0 0 386.437 386.437" xml:space="preserve">
<path d="M353.922,237.158c-5.617-1.894-11.321-3.479-17.093-4.762l-37.387-58.339c-5.743-8.967-12.203-17.449-17.189-23.836
	c-10.892-13.952-22.326-16.626-38.382-16.513c-16.05-0.142-27.486,2.561-38.377,16.514c-2.73,3.498-5.969,7.71-9.295,12.302
	l-7.835-12.529c-5.733-8.95-12.198-17.438-17.19-23.834c-10.89-13.951-22.332-16.645-38.382-16.513
	c-16.05-0.118-27.488,2.563-38.375,16.512c-3.661,4.688-8.464,10.942-13.158,17.763c-2.818,4.095-1.783,9.698,2.312,12.517
	c4.095,2.817,9.698,1.784,12.517-2.312c4.421-6.424,9.012-12.4,12.518-16.891c6.436-8.246,11.911-9.689,24.12-9.589
	c0.046,0.001,0.09,0.001,0.135,0c12.196-0.085,17.689,1.343,24.126,9.589c4.752,6.088,10.89,14.144,16.17,22.385l39.765,63.592
	c1.708,2.731,4.64,4.23,7.64,4.229c1.629,0,3.279-0.442,4.763-1.37c4.215-2.635,5.495-8.188,2.859-12.402l-21.626-34.584
	c4.535-6.655,9.338-12.933,13.129-17.79c6.437-8.247,11.898-9.667,24.119-9.589c0.046,0.001,0.091,0.001,0.137,0
	c12.188-0.083,17.687,1.342,24.125,9.59c4.746,6.079,10.878,14.126,16.221,22.469l28.918,45.123
	c-4.302-0.329-8.628-0.499-12.971-0.499c-25.701,0-50.371,5.655-73.326,16.808c-4.471,2.172-6.334,7.558-4.162,12.028
	c2.173,4.471,7.558,6.334,12.028,4.162c20.483-9.952,42.507-14.999,65.46-14.999c13.754,0,27.308,1.848,40.396,5.501
	c-13.2,57.889-60.025,102.835-118.122,113.9c1.178-8.072,1.783-16.246,1.783-24.428c0-4.246-0.162-8.455-0.473-12.623l54.062-30.889
	c4.316-2.466,5.815-7.963,3.35-12.279c-2.466-4.316-7.964-5.816-12.279-3.35l-47.707,27.258
	c-14.939-77.438-83.215-136.113-164.949-136.113c-5.942,0-11.979,0.321-17.943,0.955c-3.832,0.407-6.979,3.208-7.828,6.967
	c-2.742,12.137-4.132,24.637-4.132,37.152c0,92.632,75.362,167.995,167.995,167.995c5.947,0,11.984-0.321,17.944-0.954
	c0.004,0,0.008-0.002,0.012-0.002c74.193-7.892,134.877-64.746,147.573-138.263C360.67,242.846,358.126,238.576,353.922,237.158z
	 M44.39,218.442c0-8.989,0.802-17.967,2.388-26.772c3.182-0.201,6.363-0.302,9.515-0.302c82.708,0,149.997,67.288,149.997,149.995
	c0,5.034-0.261,10.064-0.761,15.063l-76.784-86.234c-3.306-3.712-8.996-4.043-12.707-0.737c-3.712,3.306-4.042,8.995-0.737,12.707
	l76.794,86.245C110.44,367.178,44.39,300.384,44.39,218.442z M132.79,91.351c25.186,0,45.676-20.49,45.676-45.675
	C178.465,20.49,157.975,0,132.79,0c-25.185,0-45.674,20.49-45.674,45.676C87.116,70.861,107.605,91.351,132.79,91.351z M132.79,18
	c15.261,0,27.676,12.416,27.676,27.676c0,15.26-12.415,27.675-27.676,27.675c-15.259,0-27.674-12.415-27.674-27.675
	C105.116,30.416,117.53,18,132.79,18z M243.87,115.412c25.187,0,45.678-20.489,45.678-45.674c0-25.186-20.491-45.676-45.678-45.676
	c-25.185,0-45.674,20.49-45.674,45.676C198.196,94.922,218.686,115.412,243.87,115.412z M243.87,42.061
	c15.262,0,27.678,12.416,27.678,27.676c0,15.26-12.416,27.674-27.678,27.674c-15.259,0-27.674-12.415-27.674-27.674
	C216.196,54.477,228.611,42.061,243.87,42.061z"/>
</svg>