<?xml version="1.0" encoding="iso-8859-1"?>
<!-- Uploaded to: SVG Repo, www.svgrepo.com, Generator: SVG Repo Mixer Tools -->
<!DOCTYPE svg PUBLIC "-//W3C//DTD SVG 1.1//EN" "http://www.w3.org/Graphics/SVG/1.1/DTD/svg11.dtd">
<svg fill="#000000" version="1.1" id="Capa_1" xmlns="http://www.w3.org/2000/svg" xmlns:xlink="http://www.w3.org/1999/xlink" 
	 width="800px" height="800px" viewBox="0 0 75.446 75.447"
	 xml:space="preserve">
<g>
	<path d="M56.302,34.462l-1.205-0.009l0.046-4.018c0.005,0,0.009,0,0.009,0c0.389,0.348,0.739,0.715,1.072,1.079
		c0.188-0.103,0.388-0.163,0.604-0.196c-0.226-0.25-0.408-0.52-0.652-0.766c2.445,0.42,4.523,1.906,5.739,3.968l-2.949-0.038
		c-0.119-0.261-0.306-0.511-0.445-0.768c-0.096,0.194-0.228,0.361-0.392,0.504c0.048,0.087,0.1,0.171,0.144,0.254l-0.516-0.004
		c-0.222,0.105-0.461,0.173-0.719,0.173C56.765,34.649,56.521,34.569,56.302,34.462z M30.872,39.199
		c0.746,0,1.346-0.602,1.346-1.342c0-0.201-0.049-0.383-0.126-0.552c-0.212-0.464-0.677-0.789-1.219-0.789
		c-0.542,0-1.003,0.325-1.217,0.789c-0.074,0.169-0.125,0.352-0.125,0.552C29.53,38.597,30.132,39.199,30.872,39.199z M23.68,44.959
		c0.648,0.379,1.498,0.635,2.458,0.635c0.963,0,1.808-0.256,2.455-0.635c0.376-0.232,0.701-0.479,0.9-0.789
		c-0.559,0.374-1.333,0.652-2.215,0.789c-0.364,0.051-0.743,0.082-1.14,0.082c-0.401,0-0.778-0.031-1.143-0.082
		c-0.885-0.137-1.656-0.415-2.216-0.789C22.979,44.481,23.305,44.727,23.68,44.959z M21.403,39.199c0.745,0,1.345-0.602,1.345-1.342
		c0-0.201-0.049-0.383-0.125-0.552c-0.211-0.464-0.675-0.789-1.219-0.789c-0.54,0-1.005,0.325-1.215,0.789
		c-0.08,0.169-0.128,0.352-0.128,0.552C20.06,38.597,20.665,39.199,21.403,39.199z M53.199,36.798l0.005-0.531l0.004-0.526
		l-4.363-0.049l-0.066,5.932l4.503,0.048l0.005-0.531l0.004-0.529l-3.259-0.036l0.014-1.547l2.901,0.036l0.004-0.51l0.005-0.511
		l-2.901-0.035l0.016-1.257L53.199,36.798z M47.561,43.002c1.259,2.126,3.422,3.636,5.972,4.011
		c-1.286-1.246-2.271-2.578-2.925-3.979L47.561,43.002z M54.333,46.903l0.043-3.827l-3.07-0.034
		C51.992,44.396,53.012,45.699,54.333,46.903z M53.478,30.517c-2.457,0.372-4.562,1.812-5.821,3.845l2.951,0.038
		C51.256,33.029,52.219,31.725,53.478,30.517z M54.468,34.436l0.045-4.01c-0.004,0-0.004,0-0.009,0
		c-1.409,1.229-2.481,2.567-3.202,3.979L54.468,34.436z M64.267,39.388c0.512,0.124,0.842,0.243,0.995,0.341
		c0.157,0.101,0.241,0.27,0.237,0.493c-0.005,0.23-0.119,0.408-0.343,0.526c-0.226,0.128-0.531,0.188-0.924,0.183
		c-0.388-0.004-0.684-0.091-0.9-0.26c-0.215-0.169-0.324-0.415-0.333-0.73l-1.195-0.011c0.022,0.636,0.241,1.131,0.656,1.484
		c0.425,0.35,1.009,0.536,1.757,0.536c0.748,0.005,1.341-0.144,1.784-0.47c0.438-0.319,0.666-0.76,0.67-1.316
		c0.005-0.547-0.137-0.959-0.424-1.211s-0.862-0.488-1.72-0.684c-0.594-0.145-0.981-0.259-1.164-0.359
		c-0.183-0.098-0.278-0.238-0.273-0.417c0-0.243,0.091-0.441,0.273-0.576c0.179-0.131,0.429-0.2,0.739-0.192
		c0.36,0.002,0.657,0.088,0.881,0.252c0.224,0.163,0.344,0.393,0.36,0.674l1.209,0.015c-0.041-0.599-0.265-1.067-0.676-1.422
		c-0.415-0.354-0.953-0.535-1.619-0.538c-0.707-0.012-1.272,0.152-1.692,0.482c-0.425,0.334-0.635,0.791-0.644,1.36
		c0,0.521,0.15,0.895,0.461,1.145C62.7,38.938,63.327,39.176,64.267,39.388z M56.037,41.703l0.588,0.009l0.979-4.661l0.906,4.675
		l0.588,0.009l0.589,0.014l1.711-5.912l-0.625-0.004l-0.625-0.014l-1.026,4.297h-0.005l-0.812-4.312l-0.662-0.009l-0.652-0.009
		l-0.895,4.331l-0.944-4.347l-0.646-0.004l-0.641-0.007l1.583,5.946H56.037z M43.908,41.573l0.048-4.275l2.404,4.305l0.616,0.009
		h0.62l0.064-5.927l-0.584-0.007l-0.58-0.009l-0.048,4.173l-2.331-4.2l-0.65-0.004l-0.647-0.009l-0.062,5.931l0.577,0.009
		L43.908,41.573z M55.004,43.081l-0.044,3.836c1.351-1.177,2.391-2.459,3.111-3.795L55.004,43.081z M55.772,47.029
		c2.55-0.314,4.744-1.779,6.049-3.876l-3.047-0.029C58.09,44.501,57.082,45.818,55.772,47.029z M75.446,14.365v46.718
		c0,1.482-1.206,2.685-2.685,2.685H2.686C1.204,63.767,0,62.56,0,61.083V14.365c0-1.482,1.206-2.686,2.686-2.686h70.076
		C74.244,11.679,75.446,12.882,75.446,14.365z M15.528,37.272l-0.477,0.101c-0.103,0-0.227,0.004-0.372-0.169h-0.004l-0.004-0.009
		c-0.121-0.151-0.257-0.435-0.408-0.927c-0.39,0.432-0.624,1.068-0.624,1.778c0,1.292,0.743,2.34,1.654,2.34l0.133-0.048
		l0.292-0.048l0.094,0.28c0.35,1.036,0.858,1.982,1.471,2.84c1.077,1.508,2.521,2.698,4.179,3.495
		c1.434,0.684,3.018,1.072,4.676,1.072c1.546,0,3.02-0.356,4.377-0.949c1.785-0.785,3.335-2.019,4.478-3.618
		c0.615-0.857,1.121-1.8,1.472-2.84l0.093-0.276l0.288,0.044c0.069,0.009,0.129,0.032,0.163,0.046h0.002
		c0.891,0,1.631-1.045,1.631-2.336c0-1.021-0.481-1.886-1.173-2.182c-0.12,0.696-0.24,1.074-0.348,1.277
		c-0.021,0.047-0.047,0.084-0.073,0.119l-0.002-0.004c-0.101,0.124-0.192,0.124-0.264,0.124h-0.757l0.414-0.483
		c-0.042-0.283-0.309-1.098-0.897-2.04c-0.268,0.201-0.582,0.365-0.96,0.475c-0.473,0.138-2.537,0.348-3.818-1.46
		c-0.519-0.727-0.809-2.349-0.867-2.674c-1.035,1.995-2.717,2.929-4.756,2.541c-1.03-0.194-2.018-0.29-2.936-0.29
		c-5.02,0-6.736,2.908-6.881,3.485L15.528,37.272z M24.624,58.395h2.766l1.447-5.269l1.444-5.247
		c-1.301,0.497-2.69,0.799-4.141,0.799c-1.562,0-3.058-0.343-4.44-0.922l1.476,5.37L24.624,58.395z M70.074,17.051h-64.7v41.344
		h1.81c0.42-4.293,2.275-8.157,5.062-11.141V36.48c0-8.551,6.227-15.486,13.894-15.486c7.673,0,13.893,6.936,13.893,15.486v10.779
		c2.79,2.977,4.637,6.848,5.057,11.136h24.984V17.051z M74.445,39.383c0-0.925-0.753-1.683-1.684-1.683
		c-0.933,0-1.69,0.751-1.69,1.683c0,0.933,0.758,1.689,1.69,1.689C73.692,41.073,74.445,40.313,74.445,39.383z"/>
</g>
</svg>