<svg xmlns="http://www.w3.org/2000/svg" viewBox="0 0 64 64"><g id="_14-World" data-name="14-World"><circle cx="32" cy="26" r="21" style="fill:#e8b7b7"/><path d="M57,26A25,25,0,0,1,35,50.81V54h2a2.015,2.015,0,0,1,2,2,2.006,2.006,0,0,1-2,2H35v5H29V58H27a2.015,2.015,0,0,1-2-2,2.006,2.006,0,0,1,2-2h2V50.81A25,25,0,1,1,57,26Zm-4,0a20.21,20.21,0,0,0-.1-2.07A21.022,21.022,0,1,0,53,26Z" style="fill:#795799"/><polygon points="50 24 50 23 51 22 50.31 19.98 47 17.22 47 16 44.09 16 41.33 17 38.56 17 37.87 16 34.39 16 33.06 18 36 18 36.67 19.33 34.67 20 33.33 20 30 23.33 30 26 30.67 26 33.33 23 34.67 23 36 26 38 26 38 27 37.18 27 34.42 27 33.73 26 32.36 26 28 29.64 28 32.55 29.45 34 33 34 33 34.49 34 35.87 34 37.95 34.42 42 37.18 42 39 37.95 39 37.25 38.56 35.87 40 34.49 40 33 37 33 37 29 37.18 29 38.56 29 39.25 31 41 31 41 28.96 40.64 27.58 44 28.27 44 31 44.09 31 46.16 28.96 47 31.73 47 35 48 35 48 32 49 32 49 26 52 26 52 24 50 24" style="fill:#795799"/><polygon points="32 12 32 14 27 15.64 27 17 25 17 25 16.22 25 15 23 15 23 16.5 21 17 20 17 19 19 20 18 22.78 18 23 19.91 23 20.62 21 21.24 21 22.47 20.22 23.15 20 23.83 20 25 18 25 18 26 19 26 19 28 19.87 28 22.09 29 23.58 30.73 25.8 32.8 25 34.18 25 35.27 23 38 21 38 20 34 19 33 19 31 15 26 15 20 14 20 14 18.64 17 15.91 21 12 24 11 32 10 32 12" style="fill:#795799"/><path d="M52.716,38a2,2,0,0,1-1.8-2.871,21.046,21.046,0,0,0,0-18.258,2,2,0,1,1,3.6-1.742,25.048,25.048,0,0,1,0,21.742A2,2,0,0,1,52.716,38Z" style="fill:#9d71c7"/><path d="M11.284,38a2,2,0,0,1-1.8-1.129,25.048,25.048,0,0,1,0-21.742,2,2,0,1,1,3.6,1.742,21.046,21.046,0,0,0,0,18.258A2,2,0,0,1,11.284,38Z" style="fill:#9d71c7"/><path d="M33,52a1.982,1.982,0,0,0-.29-1.023c-.237.007-.471.023-.71.023a25.381,25.381,0,0,1-3-.185V54h2A2,2,0,0,0,33,52Z" style="fill:#573875"/><path d="M29,58h0a3,3,0,0,1,3,3v2H29Z" style="fill:#573875"/><path d="M37.638,40.982,37.18,42H34.42l-.14-1.348a20.9,20.9,0,0,1-9.834-4.626L23,38H21l-1-4-1-1V31l-4-5V20H14V18.64l3-2.73.521-.509a20.85,20.85,0,0,1,2.942-6.938A20.993,20.993,0,1,0,49.537,37.537,20.883,20.883,0,0,1,38,41C37.878,41,37.759,40.984,37.638,40.982Z" style="fill:#e09696"/><path d="M37.18,42l.458-1.018a21.2,21.2,0,0,1-3.358-.33L34.42,42Z" style="fill:#573875"/><path d="M14,18.64V20h1v6l4,5v2l1,1,1,4h2l1.446-1.974A20.889,20.889,0,0,1,17.521,15.4L17,15.91Z" style="fill:#573875"/></g></svg>