<!DOCTYPE svg PUBLIC "-//W3C//DTD SVG 1.1//EN" "http://www.w3.org/Graphics/SVG/1.1/DTD/svg11.dtd">
<!-- Uploaded to: SVG Repo, www.svgrepo.com, Transformed by: SVG Repo Mixer Tools -->
<svg fill="#ffffff" height="64px" width="64px" version="1.1" id="Capa_1" xmlns="http://www.w3.org/2000/svg" xmlns:xlink="http://www.w3.org/1999/xlink" viewBox="0 0 385.459 385.459" xml:space="preserve" stroke="#ffffff">
<g id="SVGRepo_bgCarrier" stroke-width="0"/>
<g id="SVGRepo_tracerCarrier" stroke-linecap="round" stroke-linejoin="round"/>
<g id="SVGRepo_iconCarrier"> <path d="M76.383,179.811v-75.176C76.383,46.939,123.323,0,181.02,0c57.696,0,104.636,46.939,104.636,104.635v75.176 c0,25.974-21.131,47.104-47.104,47.104c-4.971,0-9-4.029-9-9s4.029-9,9-9c16.048,0,29.104-13.057,29.104-29.104v-75.176 c0-47.771-38.864-86.635-86.634-86.635c-47.772,0-86.639,38.864-86.639,86.635v75.176c0,16.048,13.057,29.104,29.104,29.104 c4.971,0,9,4.029,9,9s-4.029,9-9,9C97.514,226.915,76.383,205.784,76.383,179.811z M150.236,121.637 c-3.791,1.999-7.711,4.065-11.51,6.201c-7.951,4.47-15.577,9.746-17.523,18.019c-1.705,7.251,1.714,13.535,4.883,18.199 c7.239,10.658,26.893,35.451,53.003,35.493c8.065-0.013,16.052-2.576,25.894-8.313c23.504-13.698,38.104-39.742,38.104-67.968 c0-11.782-1.896-22.656-5.636-32.318c-1.794-4.635-7.004-6.938-11.643-5.145c-4.635,1.795-6.938,7.007-5.145,11.643 c2.935,7.581,4.423,16.269,4.423,25.82c0,21.846-11.177,41.931-29.168,52.417c-6.946,4.047-12.146,5.855-16.83,5.863 c-14.291-0.022-29.058-14.275-38.113-27.607c-1.642-2.417-2.071-3.595-2.184-4.032c0.388-0.607,2.064-2.619,8.756-6.381 c3.588-2.018,7.398-4.026,11.083-5.969c20.512-10.815,41.723-21.998,45.4-44.24c3.29-19.901-3.795-31.985-10.317-38.618 c-10.505-10.684-27.475-15.187-46.567-12.36c-4.917,0.728-8.312,5.305-7.584,10.222c0.729,4.917,5.307,8.313,10.223,7.583 c13.334-1.974,24.668,0.64,31.095,7.177c5.229,5.316,7.043,13.076,5.392,23.062C184.052,103.808,167.626,112.468,150.236,121.637z M316.544,239.527c-5.447-7.483-13.456-12.394-22.551-13.826c-4.917-0.765-9.517,2.582-10.291,7.49 c-0.773,4.91,2.58,9.518,7.49,10.291c4.346,0.685,8.181,3.042,10.798,6.638c2.618,3.596,3.682,7.97,2.997,12.315 c-0.773,4.909,2.58,9.517,7.49,10.291c0.475,0.074,0.945,0.11,1.411,0.11c4.353,0,8.181-3.165,8.88-7.601 C324.202,256.142,321.992,247.011,316.544,239.527z M301.593,307.79c0,4.971-4.029,9-9,9h-0.912 c-1.342,19.657-16.46,35.594-35.749,38.202v12.465h7.431c4.971,0,9,4.029,9,9s-4.029,9-9,9h-16.239 c-0.063,0.001-0.128,0.002-0.191,0.002s-0.128-0.001-0.191-0.002h-16.238c-4.971,0-9-4.029-9-9s4.029-9,9-9h7.43v-12.465 c-20.213-2.733-35.846-20.101-35.846-41.051v-30.066c0-22.841,18.584-41.424,41.426-41.424h6.839 c22.843,0,41.427,18.583,41.427,41.424v14.915h0.815C297.564,298.79,301.593,302.819,301.593,307.79z M273.778,283.875 c0-12.916-10.509-23.424-23.427-23.424h-6.839c-12.917,0-23.426,10.508-23.426,23.424v30.066c0,12.916,10.509,23.425,23.426,23.425 h3.285c0.09-0.002,0.18-0.002,0.27,0h3.284c11.953,0,21.845-8.998,23.255-20.576h-31.607c-4.971,0-9-4.029-9-9s4.029-9,9-9h31.779 V283.875z M184.346,367.457h-28.531L87.19,281.499c25.28-6.607,67.8-21.452,80.199-48.601c2.065-4.521,0.074-9.861-4.447-11.926 s-9.86-0.072-11.926,4.447c-9.308,20.38-49.628,35.196-81.397,41.712c-0.599,0.111-1.189,0.284-1.764,0.52 c-1.397,0.57-2.597,1.472-3.522,2.591c-0.447,0.54-0.824,1.124-1.128,1.737c-0.856,1.722-1.169,3.729-0.766,5.758 c0.055,0.274,0.122,0.548,0.202,0.818c0.362,1.217,0.966,2.309,1.746,3.232l80.064,100.285c1.029,1.289,2.341,2.221,3.776,2.776 c0.656,0.255,1.35,0.435,2.07,0.53c0.395,0.052,0.793,0.078,1.192,0.078c0.052,0,0.104,0,0.156-0.001h32.699c4.971,0,9-4.029,9-9 S189.317,367.457,184.346,367.457z"/> </g>
</svg>